<?xml version="1.0" standalone="no"?>
<!DOCTYPE svg PUBLIC "-//W3C//DTD SVG 20010904//EN"
 "http://www.w3.org/TR/2001/REC-SVG-20010904/DTD/svg10.dtd">
<svg version="1.0" xmlns="http://www.w3.org/2000/svg"
 width="500.000000pt" height="500.000000pt" viewBox="0 0 500.000000 500.000000"
 preserveAspectRatio="xMidYMid meet">

<g transform="translate(0.000000,500.000000) scale(0.100000,-0.100000)"
fill="#000000" stroke="none">
<path d="M1818 3218 c-554 -139 -638 -163 -638 -179 0 -13 11 -21 38 -28 281
-74 573 -142 597 -138 17 3 82 16 145 30 177 39 327 51 550 43 107 -3 215 -10
240 -15 32 -7 14 -8 -65 -4 -148 7 -392 -12 -545 -43 -125 -25 -173 -38 -282
-76 l-58 -21 0 -86 c0 -49 5 -92 11 -98 8 -8 35 -4 96 13 198 54 319 68 593
68 273 0 387 -13 593 -68 59 -15 90 -19 97 -12 6 6 10 62 10 136 l0 125 113
29 c61 16 120 31 130 34 16 4 17 -12 17 -232 0 -151 -4 -236 -10 -236 -5 0
-10 -25 -10 -55 0 -49 2 -55 24 -61 14 -3 34 -3 45 1 18 5 21 14 21 61 0 30
-5 54 -10 54 -7 0 -9 83 -8 242 l3 242 125 31 c69 17 137 35 153 38 17 5 27
14 27 26 0 16 -81 39 -645 180 -355 88 -662 161 -682 160 -21 0 -325 -73 -675
-161z"/>
<path d="M1630 2495 l0 -55 38 1 c30 2 32 3 10 6 -32 5 -39 39 -10 46 16 4 16
5 0 6 -27 2 -23 39 5 44 16 3 13 5 -10 6 l-33 1 0 -55z"/>
<path d="M1830 2494 l0 -55 32 3 c23 2 37 11 47 29 13 24 13 29 -2 53 -12 18
-26 26 -47 26 -30 0 -30 -1 -30 -56z m51 36 c33 -18 19 -80 -18 -80 -9 0 -13
15 -13 45 0 49 1 50 31 35z"/>
<path d="M2050 2514 c0 -47 16 -74 43 -74 34 0 47 19 47 67 0 58 -18 55 -22
-4 -3 -40 -6 -48 -23 -48 -17 0 -20 8 -23 48 -4 54 -22 64 -22 11z"/>
<path d="M2284 2525 c-12 -18 -14 -31 -7 -52 8 -23 16 -28 44 -29 26 -1 28 -1
7 3 -48 8 -51 74 -6 93 l23 9 -22 0 c-13 1 -29 -9 -39 -24z"/>
<path d="M2493 2498 c-20 -52 -21 -80 -2 -45 12 21 48 22 55 2 4 -8 10 -15 14
-15 4 0 -1 25 -13 55 -11 30 -23 55 -27 55 -4 0 -16 -24 -27 -52z m37 -4 c0
-8 -6 -14 -14 -14 -9 0 -12 7 -9 20 6 22 23 18 23 -6z"/>
<path d="M2695 2541 c15 -6 22 -20 26 -57 l6 -49 1 48 c2 39 6 49 25 57 17 7
12 9 -28 9 -34 0 -44 -3 -30 -8z"/>
<path d="M2903 2495 c0 -33 2 -45 4 -27 2 18 2 45 0 60 -2 15 -4 0 -4 -33z"/>
<path d="M3062 2538 c-7 -7 -12 -26 -12 -43 0 -36 15 -55 46 -55 27 0 47 23
47 55 0 47 -50 74 -81 43z m56 -10 c25 -25 8 -78 -25 -78 -21 0 -34 36 -23 64
10 28 29 33 48 14z"/>
<path d="M3292 2495 c1 -54 1 -56 7 -20 l6 40 25 -37 c14 -21 28 -38 33 -38 4
0 6 26 5 58 -1 42 -2 47 -5 20 -2 -21 -8 -38 -14 -38 -5 0 -9 3 -9 8 0 4 -11
21 -25 37 l-24 30 1 -60z"/>
<path d="M920 2190 c0 -91 3 -110 15 -110 12 0 15 15 15 72 0 39 3 68 7 65 3
-4 19 -35 34 -70 15 -34 34 -63 41 -65 9 -2 26 24 45 65 l31 68 1 -67 c1 -61
3 -68 21 -68 19 0 20 7 20 111 0 107 -1 110 -22 107 -16 -2 -30 -23 -57 -87
l-36 -83 -39 86 c-29 62 -45 86 -58 86 -16 0 -18 -10 -18 -110z"/>
<path d="M1210 2241 c34 -51 40 -68 40 -110 0 -39 4 -51 15 -51 11 0 15 12 15
51 0 42 6 59 40 110 36 53 39 59 21 59 -13 0 -31 -15 -48 -41 l-26 -40 -26 40
c-18 28 -33 41 -49 41 -22 0 -21 -3 18 -59z"/>
<path d="M1514 2282 c-30 -24 -44 -55 -44 -97 0 -55 53 -105 110 -105 57 0
110 50 110 105 0 72 -41 115 -110 115 -28 0 -53 -7 -66 -18z m100 -23 c13 -7
30 -25 37 -42 15 -36 -1 -73 -44 -97 -24 -13 -30 -13 -54 0 -43 24 -59 61 -44
97 19 46 60 62 105 42z"/>
<path d="M1730 2190 c0 -103 1 -110 20 -110 18 0 20 7 20 82 l0 82 60 -82 c40
-55 67 -82 80 -82 19 0 20 7 20 110 0 103 -1 110 -20 110 -17 0 -19 -8 -22
-77 l-3 -77 -58 77 c-38 51 -64 77 -77 77 -19 0 -20 -7 -20 -110z"/>
<path d="M1980 2190 l0 -110 55 0 c41 0 55 4 55 14 0 10 -13 16 -37 18 l-38 3
-3 93 c-2 73 -6 92 -17 92 -12 0 -15 -20 -15 -110z"/>
<path d="M2120 2190 c0 -91 3 -110 15 -110 12 0 15 19 15 110 0 91 -3 110 -15
110 -12 0 -15 -19 -15 -110z"/>
<path d="M2210 2190 c0 -90 3 -110 15 -110 11 0 15 18 17 83 l3 82 60 -82 c84
-117 95 -114 95 27 0 90 -3 110 -15 110 -11 0 -15 -18 -17 -81 l-3 -81 -59 81
c-37 50 -67 81 -78 81 -16 0 -18 -11 -18 -110z"/>
<path d="M2450 2190 l0 -110 65 0 c51 0 65 3 65 15 0 11 -12 15 -45 15 -43 0
-45 1 -45 29 0 27 3 30 38 33 25 2 37 8 37 18 0 10 -12 16 -37 18 -35 3 -38 6
-38 33 0 28 2 29 45 29 33 0 45 4 45 15 0 12 -14 15 -65 15 l-65 0 0 -110z"/>
<path d="M2751 2284 c-61 -43 -60 -147 2 -184 45 -28 99 -26 134 4 22 20 25
27 16 37 -10 10 -16 9 -30 -3 -40 -35 -89 -30 -120 11 -20 26 -15 70 12 96 30
31 64 32 99 4 21 -17 30 -19 39 -10 9 10 6 18 -16 37 -34 29 -100 33 -136 8z"/>
<path d="M2991 2284 c-61 -43 -60 -147 2 -184 78 -48 164 -6 174 83 5 43 3 49
-30 82 -29 29 -42 35 -79 35 -24 0 -54 -7 -67 -16z m113 -35 c67 -53 -1 -168
-76 -128 -53 28 -64 84 -23 124 30 30 64 32 99 4z"/>
<path d="M3210 2215 c0 -78 2 -88 25 -110 30 -31 92 -34 126 -6 21 17 24 29
27 110 4 87 3 91 -17 91 -20 0 -21 -5 -21 -79 0 -101 -24 -131 -81 -101 -16 9
-19 22 -19 95 0 78 -2 85 -20 85 -18 0 -20 -7 -20 -85z"/>
<path d="M3430 2190 c0 -103 1 -110 20 -110 17 0 20 7 20 45 0 60 22 60 58 0
15 -25 35 -45 45 -45 23 0 22 9 -9 54 l-26 38 21 19 c12 11 21 32 21 48 0 43
-28 61 -93 61 l-57 0 0 -110z m108 68 c7 -7 12 -15 12 -19 0 -16 -33 -39 -56
-39 -21 0 -24 5 -24 35 0 32 3 35 28 35 15 0 33 -5 40 -12z"/>
<path d="M3636 2284 c-35 -34 -17 -80 40 -105 31 -13 44 -24 44 -38 0 -27 -35
-36 -64 -18 -15 10 -27 12 -37 6 -11 -8 -10 -13 10 -29 47 -40 131 -14 131 40
0 24 -42 70 -63 70 -22 0 -47 33 -38 49 6 10 19 12 45 7 28 -5 36 -4 36 7 0
30 -78 38 -104 11z"/>
<path d="M3790 2190 l0 -110 65 0 c51 0 65 3 65 15 0 11 -12 15 -45 15 -43 0
-45 1 -45 29 0 27 3 30 37 33 27 2 39 8 41 21 3 14 -4 17 -37 17 -39 0 -41 2
-41 30 0 29 2 30 45 30 33 0 45 4 45 15 0 12 -14 15 -65 15 l-65 0 0 -110z"/>
<path d="M3976 2284 c-35 -34 -17 -80 40 -105 31 -13 44 -24 44 -38 0 -27 -35
-36 -64 -18 -15 10 -27 12 -37 6 -11 -8 -10 -13 10 -29 47 -40 131 -14 131 40
0 24 -42 70 -63 70 -22 0 -47 33 -38 49 6 10 19 12 45 7 28 -5 36 -4 36 7 0
30 -78 38 -104 11z"/>
</g>
</svg>
